<svg id="Layer_1" data-name="Layer 1" xmlns="http://www.w3.org/2000/svg" xmlns:xlink="http://www.w3.org/1999/xlink" viewBox="0 0 1537.41 1053.94">
  <defs>
    <style>
      .cls-1 {
        fill: none;
      }

      .cls-2 {
        clip-path: url(#clip-path);
      }

      .cls-3 {
        fill: url(#linear-gradient);
      }

      .cls-27, .cls-4, .cls-49 {
        fill: #f27156;
      }

      .cls-4 {
        opacity: 0.68;
      }

      .cls-10, .cls-12, .cls-13, .cls-14, .cls-27, .cls-28, .cls-38, .cls-39, .cls-4, .cls-42, .cls-6, .cls-62 {
        isolation: isolate;
      }

      .cls-5 {
        fill: #ffa298;
      }

      .cls-10, .cls-12, .cls-13, .cls-14, .cls-28, .cls-6 {
        opacity: 0.25;
      }

      .cls-6 {
        fill: url(#linear-gradient-2);
      }

      .cls-7 {
        fill: #fff;
      }

      .cls-8 {
        fill: #ccc;
      }

      .cls-9 {
        fill: url(#linear-gradient-3);
      }

      .cls-10 {
        fill: url(#linear-gradient-4);
      }

      .cls-11 {
        fill: url(#linear-gradient-5);
      }

      .cls-12 {
        fill: url(#linear-gradient-6);
      }

      .cls-13 {
        fill: url(#linear-gradient-7);
      }

      .cls-14 {
        fill: url(#linear-gradient-8);
      }

      .cls-15 {
        fill: #e88c85;
      }

      .cls-16 {
        fill: url(#linear-gradient-9);
      }

      .cls-17 {
        fill: #fffdf3;
      }

      .cls-18 {
        fill: #ddd;
      }

      .cls-19 {
        fill: #2a3d54;
      }

      .cls-20 {
        fill: #314866;
      }

      .cls-21 {
        fill: url(#linear-gradient-10);
      }

      .cls-22 {
        fill: url(#linear-gradient-11);
      }

      .cls-23 {
        fill: url(#linear-gradient-12);
      }

      .cls-24 {
        fill: #ffbf40;
      }

      .cls-25 {
        fill: url(#linear-gradient-13);
      }

      .cls-26 {
        clip-path: url(#clip-path-2);
      }

      .cls-27 {
        opacity: 0.58;
      }

      .cls-28 {
        fill: url(#linear-gradient-14);
      }

      .cls-29 {
        fill: url(#linear-gradient-15);
      }

      .cls-30 {
        fill: url(#linear-gradient-16);
      }

      .cls-31 {
        opacity: 0.3;
      }

      .cls-32 {
        fill: url(#linear-gradient-17);
      }

      .cls-33 {
        fill: url(#linear-gradient-18);
      }

      .cls-34 {
        fill: #f2f7f9;
      }

      .cls-34, .cls-36, .cls-38, .cls-39 {
        fill-rule: evenodd;
      }

      .cls-35 {
        fill: url(#linear-gradient-19);
      }

      .cls-36 {
        fill: url(#linear-gradient-20);
      }

      .cls-37 {
        fill: url(#linear-gradient-21);
      }

      .cls-38, .cls-39, .cls-48 {
        opacity: 0.53;
      }

      .cls-38 {
        fill: url(#linear-gradient-22);
      }

      .cls-39 {
        fill: url(#linear-gradient-23);
      }

      .cls-40, .cls-42 {
        opacity: 0.44;
      }

      .cls-41 {
        fill: url(#linear-gradient-24);
      }

      .cls-42 {
        fill: url(#linear-gradient-25);
      }

      .cls-43 {
        fill: url(#linear-gradient-26);
      }

      .cls-44 {
        fill: url(#linear-gradient-27);
      }

      .cls-45 {
        opacity: 0.5;
      }

      .cls-46 {
        fill: url(#linear-gradient-28);
      }

      .cls-47 {
        clip-path: url(#clip-path-3);
      }

      .cls-50 {
        fill: url(#linear-gradient-29);
      }

      .cls-51 {
        fill: url(#linear-gradient-30);
      }

      .cls-52 {
        clip-path: url(#clip-path-4);
      }

      .cls-53 {
        fill: url(#linear-gradient-31);
      }

      .cls-54 {
        fill: url(#linear-gradient-32);
      }

      .cls-55 {
        clip-path: url(#clip-path-5);
      }

      .cls-56 {
        opacity: 0.52;
      }

      .cls-57 {
        fill: url(#linear-gradient-33);
      }

      .cls-58 {
        fill: url(#linear-gradient-34);
      }

      .cls-59 {
        fill: url(#linear-gradient-35);
      }

      .cls-60 {
        fill: url(#linear-gradient-36);
      }

      .cls-61 {
        fill: url(#linear-gradient-37);
      }

      .cls-62 {
        fill: #297c6e;
        opacity: 0.32;
      }

      .cls-63 {
        fill: url(#linear-gradient-38);
      }

      .cls-64 {
        fill: #a7c4b8;
      }

      .cls-65 {
        fill: url(#linear-gradient-39);
      }

      .cls-66 {
        fill: url(#linear-gradient-40);
      }

      .cls-67 {
        fill: #3f3f3f;
      }
    </style>
    <clipPath id="clip-path">
      <rect class="cls-1" x="-13.96" y="-26.09" width="1719.53" height="1036.24"/>
    </clipPath>
    <linearGradient id="linear-gradient" x1="1430.78" y1="519.27" x2="986.08" y2="362.57" gradientTransform="matrix(1, 0, 0, -1, -13.96, 1027.91)" gradientUnits="userSpaceOnUse">
      <stop offset="0" stop-color="#ffcd77"/>
      <stop offset="1" stop-color="#f37157"/>
    </linearGradient>
    <linearGradient id="linear-gradient-2" x1="12918.51" y1="1273.35" x2="12952.31" y2="1316.87" gradientTransform="translate(13893.64 1595.91) rotate(180)" gradientUnits="userSpaceOnUse">
      <stop offset="0" stop-color="#bc5a32" stop-opacity="0"/>
      <stop offset="0.99" stop-color="#bc5a32"/>
    </linearGradient>
    <linearGradient id="linear-gradient-3" x1="12966.55" y1="1441.29" x2="12938.44" y2="1480.26" xlink:href="#linear-gradient-2"/>
    <linearGradient id="linear-gradient-4" x1="606.21" y1="182.15" x2="609.05" y2="219.41" gradientTransform="translate(-13.96 581.91)" xlink:href="#linear-gradient-2"/>
    <linearGradient id="linear-gradient-5" x1="780.63" y1="-227.21" x2="755.04" y2="145.41" gradientTransform="translate(-13.96 581.91)" gradientUnits="userSpaceOnUse">
      <stop offset="0" stop-color="#4a9be5"/>
      <stop offset="1" stop-color="#97d5fc"/>
    </linearGradient>
    <linearGradient id="linear-gradient-6" x1="468.18" y1="271.72" x2="507.13" y2="271.72" gradientTransform="matrix(1, 0, 0, -1, -13.96, 1027.91)" xlink:href="#linear-gradient-2"/>
    <linearGradient id="linear-gradient-7" x1="469.58" y1="269.22" x2="515.79" y2="269.22" gradientTransform="matrix(1, 0, 0, -1, -13.96, 1027.91)" xlink:href="#linear-gradient-2"/>
    <linearGradient id="linear-gradient-8" x1="511" y1="275.64" x2="567.47" y2="275.64" gradientTransform="matrix(1, 0, 0, -1, -13.96, 1027.91)" xlink:href="#linear-gradient-2"/>
    <linearGradient id="linear-gradient-9" x1="790.42" y1="73.37" x2="733.85" y2="85.75" xlink:href="#linear-gradient-5"/>
    <linearGradient id="linear-gradient-10" x1="1161.09" y1="-41.88" x2="908.39" y2="721.89" gradientTransform="matrix(1, 0, 0, -1, -13.96, 1027.91)" xlink:href="#linear-gradient-5"/>
    <linearGradient id="linear-gradient-11" x1="1133.26" y1="451.36" x2="1027.38" y2="658.89" gradientTransform="matrix(1, 0, 0, -1, -13.96, 1027.91)" xlink:href="#linear-gradient-5"/>
    <linearGradient id="linear-gradient-12" x1="797.33" y1="32.13" x2="844.12" y2="32.13" gradientTransform="translate(-13.96 581.91)" gradientUnits="userSpaceOnUse">
      <stop offset="0" stop-color="#ffcc76"/>
      <stop offset="1" stop-color="#f27156"/>
    </linearGradient>
    <linearGradient id="linear-gradient-13" x1="730.88" y1="402.14" x2="810.88" y2="402.14" gradientTransform="matrix(1, 0, 0, -1, -13.96, 1027.91)" xlink:href="#linear-gradient-12"/>
    <clipPath id="clip-path-2">
      <path class="cls-1" d="M724.62,581.48h64.6a7.7,7.7,0,0,1,7.7,7.7h0v40.88a40,40,0,0,1-40,40h0a40,40,0,0,1-40-40V589.18a7.7,7.7,0,0,1,7.7-7.7Z"/>
    </clipPath>
    <linearGradient id="linear-gradient-14" x1="1197.75" y1="-966.2" x2="1182.35" y2="-913.58" gradientTransform="matrix(0.99, -0.17, 0.17, 0.99, -46.58, 1781)" xlink:href="#linear-gradient-2"/>
    <linearGradient id="linear-gradient-15" x1="12109.87" y1="3455.95" x2="12080.73" y2="3433.43" gradientTransform="translate(13408.14 -1178.72) rotate(155.75)" gradientUnits="userSpaceOnUse">
      <stop offset="0" stop-color="#cc7a5e" stop-opacity="0"/>
      <stop offset="0.92" stop-color="#aa5f4b"/>
    </linearGradient>
    <linearGradient id="linear-gradient-16" x1="1123.58" y1="345.25" x2="908.99" y2="408.78" gradientTransform="matrix(1, 0, 0, -1, -13.96, 1027.91)" xlink:href="#linear-gradient-5"/>
    <linearGradient id="linear-gradient-17" x1="214.59" y1="709.35" x2="581.23" y2="709.35" gradientTransform="matrix(1, 0, 0, -1, 0, 1054)" gradientUnits="userSpaceOnUse">
      <stop offset="0" stop-color="#5fcae7"/>
      <stop offset="1" stop-color="#4783c4"/>
    </linearGradient>
    <linearGradient id="linear-gradient-18" x1="229" y1="875.21" x2="595.25" y2="875.21" gradientTransform="matrix(1, 0, 0, -1, -13.96, 1027.91)" gradientUnits="userSpaceOnUse">
      <stop offset="0" stop-color="#2b306e" stop-opacity="0.5"/>
      <stop offset="1" stop-color="#2b306e"/>
    </linearGradient>
    <linearGradient id="linear-gradient-19" x1="287.04" y1="625.4" x2="356.21" y2="628.23" gradientTransform="matrix(1, 0, 0, -1, 0, 1054)" gradientUnits="userSpaceOnUse">
      <stop offset="0" stop-color="#00d3d3"/>
      <stop offset="1" stop-color="#00afd4"/>
    </linearGradient>
    <linearGradient id="linear-gradient-20" x1="598.88" y1="610.78" x2="636.02" y2="610.78" gradientTransform="matrix(1, 0, 0, -1, -13.96, 1027.91)" gradientUnits="userSpaceOnUse">
      <stop offset="0" stop-color="#8ccedd"/>
      <stop offset="1" stop-color="#63b9e3"/>
    </linearGradient>
    <linearGradient id="linear-gradient-21" x1="562.33" y1="598.18" x2="644.85" y2="598.18" gradientTransform="matrix(1, 0, 0, -1, 0, 1054)" xlink:href="#linear-gradient-20"/>
    <linearGradient id="linear-gradient-22" x1="552.91" y1="556.62" x2="681.85" y2="556.62" xlink:href="#linear-gradient-20"/>
    <linearGradient id="linear-gradient-23" x1="552.91" y1="541.15" x2="681.85" y2="541.15" xlink:href="#linear-gradient-20"/>
    <linearGradient id="linear-gradient-24" x1="153.4" y1="692.25" x2="250.22" y2="692.25" xlink:href="#linear-gradient-20"/>
    <linearGradient id="linear-gradient-25" x1="129.15" y1="708.13" x2="274.66" y2="708.13" xlink:href="#linear-gradient-20"/>
    <linearGradient id="linear-gradient-26" x1="156.09" y1="773.02" x2="242.91" y2="809.02" gradientTransform="matrix(1, 0, 0, -1, 0, 1054)" gradientUnits="userSpaceOnUse">
      <stop offset="0" stop-color="#16d1a5"/>
      <stop offset="1" stop-color="#87d29c"/>
    </linearGradient>
    <linearGradient id="linear-gradient-27" x1="148.97" y1="685.92" x2="226.99" y2="685.92" gradientTransform="matrix(1, 0, 0, -1, 0, 1054)" xlink:href="#linear-gradient"/>
    <linearGradient id="linear-gradient-28" x1="1128.04" y1="66.07" x2="1581.22" y2="752.19" gradientTransform="matrix(1, 0, 0, -1, -13.96, 1027.91)" xlink:href="#linear-gradient-12"/>
    <clipPath id="clip-path-3">
      <polygon class="cls-1" points="1075.57 811.77 1237.92 810.35 1344.51 582.35 1338.16 756.71 1220.28 1009.41 1024.04 1009.41 1075.57 811.77"/>
    </clipPath>
    <linearGradient id="linear-gradient-29" x1="1022.81" y1="-168.34" x2="1115.98" y2="507.19" xlink:href="#linear-gradient"/>
    <linearGradient id="linear-gradient-30" x1="192.01" y1="148.09" x2="689.65" y2="148.09" gradientTransform="translate(-13.96 581.91)" xlink:href="#linear-gradient-18"/>
    <clipPath id="clip-path-4">
      <path class="cls-1" d="M189.1,646.91H381.77a22.82,22.82,0,0,1,21.17,14.35l48.64,122a23.84,23.84,0,0,0,22.17,15H668.28a7.43,7.43,0,0,1,7.41,7.42h0a7.41,7.41,0,0,1-7.41,7.41H256.38a25,25,0,0,1-23.23-15.71L178.84,662.13A11.07,11.07,0,0,1,185,647.75h0A11.11,11.11,0,0,1,189.1,646.91Z"/>
    </clipPath>
    <linearGradient id="linear-gradient-31" x1="334.75" y1="179.73" x2="261.69" y2="288.79" gradientTransform="translate(-13.96 581.91)" gradientUnits="userSpaceOnUse">
      <stop offset="0" stop-color="#41415a" stop-opacity="0"/>
      <stop offset="1" stop-color="#41415a"/>
    </linearGradient>
    <linearGradient id="linear-gradient-32" x1="-298.08" y1="168.79" x2="1215.1" y2="48.64" xlink:href="#linear-gradient"/>
    <clipPath id="clip-path-5">
      <path class="cls-1" d="M122.3,810.77H515.8c28.85,0,52.24,26.39,52.24,58.94h0C568,945.53,513.56,1007,446.36,1007H191.74c-67.2,0-121.68-61.47-121.68-137.29h0c0-32.55,23.39-58.94,52.24-58.94Z"/>
    </clipPath>
    <linearGradient id="linear-gradient-33" x1="350.45" y1="-75.19" x2="803.63" y2="397.05" gradientTransform="matrix(1, 0, 0, -1, -13.96, 1027.91)" xlink:href="#linear-gradient-12"/>
    <linearGradient id="linear-gradient-34" x1="1206.18" y1="306.93" x2="1369.87" y2="306.93" gradientTransform="translate(-13.96 581.91)" xlink:href="#linear-gradient"/>
    <linearGradient id="linear-gradient-35" x1="1218.21" y1="376.76" x2="1357.72" y2="376.76" gradientTransform="translate(-13.96 581.91)" xlink:href="#linear-gradient"/>
    <linearGradient id="linear-gradient-36" x1="1290.99" y1="65.26" x2="1368.99" y2="65.26" gradientTransform="translate(-13.96 871.91)" gradientUnits="userSpaceOnUse">
      <stop offset="0" stop-color="#e4ebf8" stop-opacity="0"/>
      <stop offset="1" stop-color="#e4ebf8"/>
    </linearGradient>
    <linearGradient id="linear-gradient-37" x1="1297.64" y1="68.53" x2="1416.68" y2="92.33" gradientTransform="translate(-13.96 581.91)" gradientUnits="userSpaceOnUse">
      <stop offset="0" stop-color="#97d0b3"/>
      <stop offset="1" stop-color="#3da1b7"/>
    </linearGradient>
    <linearGradient id="linear-gradient-38" x1="1214.98" y1="172.11" x2="1156.78" y2="224.14" xlink:href="#linear-gradient-37"/>
    <linearGradient id="linear-gradient-39" x1="1095.02" y1="378.31" x2="1312.48" y2="378.31" gradientTransform="matrix(1, 0, 0, -1, -13.96, 1027.91)" xlink:href="#linear-gradient-37"/>
    <linearGradient id="linear-gradient-40" x1="1224.93" y1="350.91" x2="1351.65" y2="350.91" gradientTransform="translate(-13.96 581.91)" gradientUnits="userSpaceOnUse">
      <stop offset="0.01" stop-color="#ff7a00"/>
      <stop offset="0.98" stop-color="#ffb600"/>
    </linearGradient>
  </defs>
  <g id="Layer_2" data-name="Layer 2">
    <g id="Layer_3" data-name="Layer 3">
      <g class="cls-2">
        <g>
          <g id="Layer_16" data-name="Layer 16">
            <g>
              <path class="cls-3" d="M1058.63,403.77l291.53-.35c37.19-.16,61.62,38.81,45.24,72.21L1234.4,804l-91,28.24-86.12-9.89Z"/>
              <path class="cls-4" d="M1073.19,464.74,1271.68,461l-.09-4.5V461a45,45,0,0,1,41.09,63.27l4.12,1.81-4-2-154,310.42a4.5,4.5,0,0,0,8.06,4l154-310.51v-.05a54,54,0,0,0-49.29-75.9h0L1073,455.74a4.5,4.5,0,0,0,.18,9Z"/>
              <g>
                <path class="cls-5" d="M908.25,286.68,921.53,359s3,16.23-5.41,41.8c-5.9,17.21,5.41,19.18,14.75,20.16,11.32,1,28.53.5,54.1-4.91,37.38-7.87,53.12-28,53.12-28l-10.82-28-36.89-120.5Z"/>
                <path class="cls-6" d="M996.29,304.38c11.31-17.21,2.45-42.29,2-42.78l-3.44-13.77-4.43-8.37-80.69,55.6,10.82,60s12.29-2,29.5-10.33c12.3-5.9,33.94-21.64,46.24-40.33Z"/>
                <path class="cls-5" d="M853.85,135.63c10.31-19.72,29.33-14.39,29.33-14.39s31.42-24,61.31-2.17c25.27,18.68,40.75,77.32,40.75,77.32L994.51,222s-5.14,14.92-7.72,26.65c-2.58,11.19-12.37,20.78-29.33,29.84-20.09,10.66-47.89,21.33-64.38,16s-32-21.31-37.61-53.29c-3.61-21.32-5.15-48.5-5.67-68.75,0-6.4-1.54-25.57,4.13-36.77Z"/>
                <g>
                  <path class="cls-7" d="M881.2,205.06a7.55,7.55,0,0,0-4.92,2l-3-4c0-.49,3.44-3,8.36-3a10.63,10.63,0,0,1,7.87,3.93l-3.46,3.46S883.66,205.06,881.2,205.06Z"/>
                  <path class="cls-7" d="M853.17,231.06l.49,4.92h2c11.8,0,20.65-14.75,20.16-32-.49-16.72-10.33-31-22.13-30.49a14.33,14.33,0,0,0-4.43,1v5.42a17.58,17.58,0,0,1,4.92-1c8.85,0,16.72,11.81,17.21,25.58S865,230.62,856.1,231.07Z"/>
                </g>
                <path class="cls-8" d="M854.15,236.51l-.49-4.91c-7.87-2-14.26-12.79-14.76-25.58-.49-12.29,3.94-22.13,10.33-26.06v-5.41C839.4,178,833,191.27,833.49,206,834,222.74,842.84,236.06,854.15,236.51Z"/>
                <path class="cls-9" d="M963.42,105l-86.07,27s32.46,6.88,52.14,18.2c16.72,9.83,36.39,42.29,36.39,42.29Z"/>
                <ellipse class="cls-5" cx="998.74" cy="222.26" rx="26.07" ry="28.03"/>
                <g>
                  <path class="cls-7" d="M885.63,213.91c0-17.7,11.31-32.46,24.59-32.46s24.59,14.76,24.59,32.46S924,246.35,910.22,246.35C896.94,246.35,885.63,231.6,885.63,213.91Zm4.92,0c0,15.25,8.85,27.54,19.67,27.54s19.67-12.29,19.67-27.54-8.85-27.54-19.67-27.54S890.55,198.64,890.55,213.91Z"/>
                  <path class="cls-7" d="M931.37,211.91l-.5-4.92L981,198.64l-5.94,6.42Z"/>
                </g>
                <g>
                  <path class="cls-5" d="M576.38,730.25s104.18-40.1,136.26-47.8,29.52,56.46,29.52,56.46-84.93,31.51-119.36,43.63c-53.48,18.83-60.32,9.84-60.32,9.84Z"/>
                  <path class="cls-10" d="M670.29,736.06s-80.86,37.54-111.66,36.26-52.94,7.59-52.94,7.59,18.93-5.94,27.59,1.76c15.24,6.9,29.3,21.71,74.44,6.26,45.44-15.56,72.19-25.19,72.19-25.19Z"/>
                  <path class="cls-11" d="M900.86,365.67,726.44,654.22,589.33,719.79c-.81-1.14,10.22,9.59,23.06,44.24C623.46,793.91,626,790.85,626,790.85s120.29-3.17,169.38-55.17S948.35,476.37,900.86,365.67Z"/>
                  <path class="cls-5" d="M576.38,730.25l-15.83,4.28s-21.39-3-29.94-3.85-23.11-3.85-35.09.43-33.37,7.27-38.48,15.8-16.68,25.67-8.56,34.65,15,13.26,30.81-6S498.12,758,498.12,758s-15.83,27.38-21,32.09,14.54,9,24-4.71c3.42-4.7,5.13-6,5.13-6s16.26-3,21-1.28,33.37,19.68,47.06,15.83l35.08-9.84Z"/>
                  <path class="cls-12" d="M493.17,736.06s-26.95,9-29.95,16.26-9,24-9,24"/>
                  <path class="cls-13" d="M501.83,737.91s-23.26,11.88-26,15.08-20.21,26.48-20.21,26.48"/>
                  <path class="cls-14" d="M512.1,743.73S498.47,753.84,497,760.58a36.84,36.84,0,0,1,10.59,0c6.42.8,8.66-.65,15.88-1.77s8.35,0,15.24,0,14.76-.64,14.76-.64"/>
                  <path class="cls-15" d="M494.94,763.14s-4.18,7.06-.32,12.52a20.14,20.14,0,0,1,3.48,11.55s6.1-5.62,8-8.67C501.19,777.58,493.65,773.73,494.94,763.14Z"/>
                </g>
                <path class="cls-7" d="M823.92,887.67l345.48-13.76S1101.77,490.29,1098,473.57c-29.65-129.35-88.29-131.64-105-132.13C764.09,336.83,823.92,887.67,823.92,887.67Z"/>
                <path class="cls-16" d="M931,367.79c-6.76.78-31.83.92-63.54,53.67a277.94,277.94,0,0,0-34.85,94.45c-23.74,133.81-46.3,339.61-49.61,380.5v.67c0,3.51,2.3,6.33,5.1,6.31h13.66c12.6,0,32.57-11.66,33-26.91C838.23,776.64,843,583.05,867.76,469,879.94,413.91,873.57,395.09,931,367.79Z"/>
                <path class="cls-17" d="M1030.71,329l-60,53.61-87,15.25,23.56-49.1,109.26-41.4a5.13,5.13,0,0,1,6.39,3l7.87,18.68Z"/>
                <circle class="cls-18" cx="863" cy="591.61" r="7.38"/>
                <g>
                  <path class="cls-19" d="M997.92,836.47l-227.29-.7-108,125.64L701.45,1020H1012S1065.69,922.59,997.92,836.47Z"/>
                  <path class="cls-20" d="M998.63,836.47H872.29c-72.92,0-127.51,66.89-112.9,138.33l16.18,79.11,247.06-2.82L1053,865.44Z"/>
                </g>
                <path class="cls-21" d="M905.57,836c31.33,6.68,37.07,57.86,68.24,65.26a74.18,74.18,0,0,0,17.05,2.12L1169.8,890.5a5.4,5.4,0,0,0,5.42-5.38h0a5.14,5.14,0,0,0-.16-1.3l-65.17-410.24c-31.47-129.35-49.09-142.35-66.79-142.84-27.55-1-106,29.7-139.41,58.24-30.49,30-15,89-4.24,218.82"/>
                <path class="cls-22" d="M1025.26,331.21c-26.25,2.2-39.11,15.26-47.44,34.82a111,111,0,0,0-4.73,71.88c8.87,33.4,17.7,51,43.54,113.4,29.33,72.86,60.25,82.63,88.92,108.73,38.78,35.34,48.48,106,85.44,88,38.12-18.6,42.26-54.86,40.35-88.6-2.11-37.58-49.17-120-75-178.72-36.17-83.36-59-155.28-131.16-149.57Z"/>
                <g>
                  <path class="cls-23" d="M790.17,592.38l-.56-2.9.55,2.9h0l-.56-2.9.55,2.9h0a37.6,37.6,0,0,1,6.09-.47,36.13,36.13,0,0,1,7.76.81,24,24,0,0,1,5.89,2.09,18.59,18.59,0,0,1,3.86,2.67,17.7,17.7,0,0,1,4.41,6.43,30,30,0,0,1,2,11v.39a24,24,0,0,1-.82,6.47,16,16,0,0,1-4.34,7.38,19.5,19.5,0,0,1-5.08,3.5,32.66,32.66,0,0,1-9.21,2.82,49.65,49.65,0,0,1-8.17.65,25.19,25.19,0,0,1-2.75-.08h-.9l-.15,1.42.16-1.41h0l-.15,1.42.16-1.41a5,5,0,1,0-1.33,9.92h.27c.14,0,1.92.2,4.7.2a58.76,58.76,0,0,0,10-.82,44.18,44.18,0,0,0,9.11-2.48,33.34,33.34,0,0,0,6.83-3.62,26.23,26.23,0,0,0,8.39-9.4,30.66,30.66,0,0,0,3.3-14.5v-.51a37.74,37.74,0,0,0-3.73-16.94,26.93,26.93,0,0,0-6.54-8.37,31,31,0,0,0-12.31-6.25,48,48,0,0,0-19.31-.73,5,5,0,0,0,1.9,9.82h0Z"/>
                  <path class="cls-24" d="M724.62,581.48h64.6a7.7,7.7,0,0,1,7.7,7.7h0v40.88a40,40,0,0,1-40,40h0a40,40,0,0,1-40-40V589.18a7.7,7.7,0,0,1,7.7-7.7Z"/>
                  <g>
                    <path class="cls-25" d="M724.62,581.48h64.6a7.7,7.7,0,0,1,7.7,7.7h0v40.88a40,40,0,0,1-40,40h0a40,40,0,0,1-40-40V589.18a7.7,7.7,0,0,1,7.7-7.7Z"/>
                    <g class="cls-26">
                      <path class="cls-27" d="M721.63,651.21s62.46,10.27,69.3-77c19.25,34.22,19.25,94.12,5.56,100.53S731,686.72,721.63,651.21Z"/>
                    </g>
                  </g>
                </g>
                <path class="cls-5" d="M1087.55,623.54c-14.93-4.07-131.67-29.24-131.67-29.24l-.22.21-27-10.45s-29.7-7-38.81-9.59a84.55,84.55,0,0,0-26.07-2.64c-7,.35-4.63-2.94-16.35-1.38s-24.32,2.85-30.69-.63-9.16,11.88,2.57,15.28,15.89,6,29.76,4.91c-19,2.77-45.76,8.11-44.13,20.23,1.62,7.17,6.84,6.29,7.52,10.31s-2.53,9.52,1.9,13.73,8.24,2.34,8.85,6-2.54,7,2,11.66,5.7,1.93,9.39,4.21,1.08,8.91,11.94,9.56,55.51-18.83,55.51-18.83,188,101.67,212.86,67.41C1134.2,687.7,1102.48,627.6,1087.55,623.54Z"/>
                <path class="cls-28" d="M1130.1,699.06c-7.88-2.15-123.12-51.7-206.68-75.87C848.7,601.58,804.23,604.58,805,610.3c1.62,7.17,6.84,6.29,7.52,10.31s-2.53,9.52,1.9,13.73,8.24,2.34,8.85,6-2.54,7,2,11.66,5.7,1.93,9.39,4.21,1.08,8.91,11.94,9.56,55.5-18.89,55.5-18.89,187.9,101.67,212.77,67.41C1134.2,687.7,1145,703.06,1130.1,699.06Z"/>
                <path class="cls-29" d="M965.1,596.18c11.19.85,38.82,7.94,45.38,9.29l-11.69,87.86-57.43-26.78s23.12-35,22.88-64.08Z"/>
                <path class="cls-30" d="M910.75,663.56c56.55,11.27,96,37.09,99.88,38.47,16.85,5.58,58.78,50.57,106,55.79,73.15,5.88,110.43-19.16,111.3-71.33,1.49-24.84-5.42-55.59-101.53-69.52-48-10.3-145.88-39.18-202.94-46.94Z"/>
              </g>
              <g id="Group_228" data-name="Group 228">
                <g id="Group_226" data-name="Group 226">
                  <g id="Group_222" data-name="Group 222" class="cls-31">
                    <g id="Group_133" data-name="Group 133">
                      <rect id="Rectangle_232-3" data-name="Rectangle 232-3" class="cls-32" x="214.59" y="124.69" width="366.64" height="439.93" rx="40.42"/>
                    </g>
                  </g>
                  <path id="Rectangle_335" data-name="Rectangle 335" class="cls-33" d="M255.45,124.34H540.87a40.42,40.42,0,0,1,40.42,40.42v16.3H215v-16.3a40.42,40.42,0,0,1,40.42-40.42Z"/>
                  <path id="Path_2172" data-name="Path 2172" class="cls-34" d="M282.17,163.41a7.09,7.09,0,1,0-7.08-7.1h0a7.08,7.08,0,0,0,7.07,7.09h0Zm-20.26,0a7.09,7.09,0,1,0-7.09-7.09h0a7.08,7.08,0,0,0,7.07,7.09h0Zm47.62-7.09a7.1,7.1,0,1,1-7.11-7.09h0a7.08,7.08,0,0,1,7.09,7.09Z"/>
                  <g id="Rectangle_336" data-name="Rectangle 336">
                    <rect class="cls-7" x="314.78" y="298.35" width="166.27" height="40.35" rx="11.55"/>
                  </g>
                  <g id="Rectangle_340" data-name="Rectangle 340">
                    <rect class="cls-7" x="314.78" y="347.65" width="166.27" height="40.35" rx="11.55"/>
                  </g>
                  <rect id="Rectangle_341" data-name="Rectangle 341" class="cls-35" x="315.03" y="403.88" width="166.27" height="40.35" rx="19.63"/>
                </g>
                <g id="Group_225" data-name="Group 225">
                  <g id="Group_219" data-name="Group 219">
                    <g id="Group_133-2" data-name="Group 133-2">
                      <rect id="Rectangle_232-4" data-name="Rectangle 232-4" class="cls-7" x="506.8" y="350.78" width="197.45" height="170.57" rx="24.25"/>
                    </g>
                  </g>
                  <path id="Path_2156" data-name="Path 2156" class="cls-36" d="M584.92,417.13a18.57,18.57,0,1,0,18.57-18.57,18.56,18.56,0,0,0-18.57,18.57Zm24.18-7.43a5.58,5.58,0,1,1-5.59-5.57h0a5.57,5.57,0,0,1,5.57,5.57h0Zm-16.71,14.82c0-3.7,7.42-5.72,11.14-5.72s11.08,2,11.14,5.72a13.37,13.37,0,0,1-22.28,0Z"/>
                  <rect id="Rectangle_263" data-name="Rectangle 263" class="cls-37" x="562.33" y="450.66" width="82.52" height="10.32" rx="3.55"/>
                  <path id="Path_2157" data-name="Path 2157" class="cls-38" d="M539,468.19a2.06,2.06,0,0,1,2.06-2.06H665.83a2.06,2.06,0,0,1,2.06,2.06h0v6.19a2.06,2.06,0,0,1-2.06,2.06H541a2.07,2.07,0,0,1-2.07-2.06h0Z"/>
                  <path id="Path_2158" data-name="Path 2158" class="cls-39" d="M539,483.66A2.06,2.06,0,0,1,541,481.6H665.83a2.06,2.06,0,0,1,2.06,2.06h0v6.19a2.07,2.07,0,0,1-2.06,2.07H541a2.07,2.07,0,0,1-2.07-2.07h0Z"/>
                  <path id="Path_2161" data-name="Path 2161" class="cls-34" d="M522.57,366.33h0a3.6,3.6,0,0,0,3.59,3.61h0"/>
                </g>
                <g id="Group_224" data-name="Group 224">
                  <rect id="Rectangle_343-2" data-name="Rectangle 343-2" class="cls-7" x="88.75" y="211.1" width="198.63" height="198.63" rx="26.56"/>
                  <g id="Group_223" data-name="Group 223">
                    <g id="Group_210" data-name="Group 210" class="cls-40">
                      <path id="Rectangle_321" data-name="Rectangle 321" class="cls-41" d="M143.85,331.25h88a4.43,4.43,0,0,1,4.41,4.41h0a4.4,4.4,0,0,1-4.39,4.41h-88a4.4,4.4,0,0,1-4.41-4.39h0a4.43,4.43,0,0,1,4.41-4.41Z"/>
                    </g>
                    <g id="Group_211" data-name="Group 211">
                      <path id="Rectangle_322" data-name="Rectangle 322" class="cls-42" d="M119.6,315.37H256.29a4.43,4.43,0,0,1,4.41,4.41h0a4.4,4.4,0,0,1-4.39,4.41H119.6a4.4,4.4,0,0,1-4.41-4.39h0a4.43,4.43,0,0,1,4.41-4.41Z"/>
                    </g>
                    <g id="Group_214" data-name="Group 214">
                      <g id="Group_212" data-name="Group 212">
                        <ellipse id="Ellipse_41" data-name="Ellipse 41" class="cls-7" cx="188.03" cy="267.74" rx="30.77" ry="31.67"/>
                      </g>
                      <g id="Group_213" data-name="Group 213">
                        <ellipse id="Ellipse_42" data-name="Ellipse 42" class="cls-43" cx="188.03" cy="267.74" rx="30.77" ry="31.67"/>
                      </g>
                    </g>
                    <g id="Group_227" data-name="Group 227">
                      <g id="Group_215" data-name="Group 215">
                        <rect id="Rectangle_323" data-name="Rectangle 323" class="cls-44" x="148.97" y="352.64" width="78.02" height="30.87" rx="8.82"/>
                      </g>
                      <g id="Group_217" data-name="Group 217" class="cls-45">
                        <g id="Group_216" data-name="Group 216">
                          <path id="Rectangle_324" data-name="Rectangle 324" class="cls-7" d="M176.74,363.66H199.1a4.4,4.4,0,0,1,4.41,4.41h0a4.4,4.4,0,0,1-4.41,4.41H176.74a4.4,4.4,0,0,1-4.41-4.41h0a4.41,4.41,0,0,1,4.39-4.41Z"/>
                        </g>
                      </g>
                    </g>
                    <g id="_157977" data-name=" 157977">
                      <path id="Path_2174" data-name="Path 2174" class="cls-7" d="M196.22,260.73l-9.83,9.83-4.51-4.5a1.74,1.74,0,0,0-2.46,2.46l5.74,5.73a1.68,1.68,0,0,0,1.23.51h0a1.72,1.72,0,0,0,1.23-.51l11.06-11.06a1.74,1.74,0,0,0-2.11-2.76.65.65,0,0,0-.18.15,1.29,1.29,0,0,0-.17.16Z"/>
                    </g>
                  </g>
                </g>
              </g>
              <path class="cls-46" d="M1075.57,811.77l104-1a80,80,0,0,0,70.53-43.56l148.78-324.62h0a350.32,350.32,0,0,1-22.35,200.8l-156.23,366H1024Z"/>
              <g class="cls-47">
                <g class="cls-48">
                  <path class="cls-49" d="M1096,903.79s-2.73,28.36,18.54,30.54,93.27,3.28,93.27,3.28,43.54-.42,52.27-22.79l-39.76,94.59-167.06-2.82Z"/>
                </g>
              </g>
              <path class="cls-50" d="M973.1,1052.33s-5.8-81.2,5.8-154.11c10-62.88,52.2-101.91,110.2-92,64.53,11.06,24,130.08,9.94,165.71s-34,82-34,82Z"/>
              <g>
                <g id="laptop">
                  <path class="cls-51" d="M189.1,646.91H381.77a22.82,22.82,0,0,1,21.17,14.35l48.64,122a23.84,23.84,0,0,0,22.17,15H668.28a7.43,7.43,0,0,1,7.41,7.42v7.41H256.38a25,25,0,0,1-23.23-15.71L178.84,662.13A11.07,11.07,0,0,1,185,647.75h0A11.11,11.11,0,0,1,189.1,646.91Z"/>
                  <g class="cls-52">
                    <path class="cls-53" d="M171.92,656.71C183.69,675.06,241.1,802.12,441.1,823.3s-238.59,0-238.59,0Z"/>
                  </g>
                  <circle class="cls-7" cx="309.1" cy="732.72" r="10.59"/>
                </g>
                <g>
                  <path class="cls-54" d="M122.3,813.77H515.8c28.85,0,52.24,26.39,52.24,58.94h0C568,948.53,513.56,1010,446.36,1010H191.74c-67.2,0-121.68-61.47-121.68-137.29h0c0-32.55,23.39-58.94,52.24-58.94Z"/>
                  <g class="cls-55">
                    <g class="cls-56">
                      <path class="cls-49" d="M73.19,891.59s4.69,41.32,61.93,42.32,127.62,0,127.62,0,31,9.53,49.74-39.17S389.43,1007,389.43,1007l-16.89,36-229,8.47S60,955.12,73.19,891.59Z"/>
                    </g>
                  </g>
                  <path class="cls-57" d="M320.63,813.59h444a58.94,58.94,0,0,1,58.94,58.94h0a137.29,137.29,0,0,1-137.29,137.29H399A137.29,137.29,0,0,1,261.69,872.53h0a58.94,58.94,0,0,1,58.94-58.94Z"/>
                  <path class="cls-27" d="M389.72,850.3H695.54a32,32,0,0,1,32,32h0a96.78,96.78,0,0,1-96.77,96.79H454.49A96.78,96.78,0,0,1,357.7,882.3h0a32,32,0,0,1,32-32Z"/>
                </g>
              </g>
              <g>
                <path class="cls-58" d="M1228.12,874.82H1344a11.88,11.88,0,0,1,11.88,11.88h0v16.15H1192.22V886.71a11.89,11.89,0,0,1,11.87-11.89h0"/>
                <path class="cls-59" d="M1343.76,902.86H1204.25l6.66,111.62H1337Z"/>
                <path class="cls-7" d="M1339.68,971.47l4.08-68.61H1204.25l4.09,68.61Z"/>
                <path class="cls-60" d="M1339.68,971.47l4.08-68.61h-78l4.09,68.61Z"/>
                <path class="cls-61" d="M1335.83,590.86c-12.24,11.13-19.25,24.82-19.29,41.35,0,20.26.33,44.74-14.11,60.1-19.06,20.36-25.09,29.15-30.49,65.38-5.7,38.33,8.9,67.51,15.57,72.78s12.85,7,22.26.74c20-13.36,23.59-42.56,40.86-49,23.77-8.9,42.29-17.09,49-34.72,6-15.87,7.23-31.71,22.25-40.35,31.16-17.8,37.84-43.08,34.19-69.84-4-29.24,7.83-35,28.93-52,28.33-22.79,23-51.19,2-70.11-11.84-10.57-34.45-16.73-57.86-5.78-36,16.91-14.4,45.8-57.33,61.11l-36.15,20.21Z"/>
                <path class="cls-62" d="M1486.8,515.44a43.27,43.27,0,0,0-9.06-6.08c-5.83,5.88-9.22,13.91-10.24,27.78-2,26.93-13.87,50.21-48.12,61.07-16.58,5.25-21.14,20.47-30.33,34.72-10.2,15.8-30,19.89-55.2,23.59-7.94,1.18-14.24,7.08-20.65,14.11A47.85,47.85,0,0,1,1302,692.48c-19,20.37-25.08,29.16-30.49,65.39-5.7,38.33,8.9,67.51,15.58,72.78s12.84,7,22.25.73c20-13.35,23.6-42.55,40.87-49,23.77-8.9,42.28-17.09,49-34.72,6-15.87,7.23-31.71,22.26-40.35,31.15-17.8,37.83-43.09,34.18-69.84-4-29.24,7.84-35,28.93-52,28.36-22.77,23-51.19,2-70.06Z"/>
                <path class="cls-63" d="M1086,760.48c2.89,14.91,14.69,29.64,27.55,38.81,25.51,18.12,51.64,14.65,69,21.59s26.7,21.59,39.54,24.48c10.09,2.23,16.92,0,20.41-4.18,8.62-10.51,8.91-41.13-14.69-63.43s-50.38-17.43-73.44-30-36.34-38.42-59.2-23.08c0,0-14.58,7.25-9.08,35.76Z"/>
                <path class="cls-62" d="M1227.65,777.66c-14.38-13.58-30-17.09-45.12-20.59a29.21,29.21,0,0,1-5.27,16.36c-3.47,4.23-10.33,6.39-20.41,4.18-12.75-2.78-22.26-17.42-39.55-24.48-8.9-3.6-20.21-4.45-32.56-6.85a59.66,59.66,0,0,0,1.2,14.11c2.89,14.91,14.69,29.64,27.55,38.81,25.51,18.12,51.64,14.65,69,21.59s26.71,21.59,39.54,24.47c10.08,2.23,16.91,0,20.41-4.18,8.59-10.53,8.9-41.18-14.69-63.43Z"/>
                <path class="cls-7" d="M1239.6,844.87a1.1,1.1,0,0,1-1-.6l-.23-.49-.44-.82-.22-.45a110,110,0,0,0-19.08-25c-20.79-19.59-50.21-32.94-69.66-41.84-5.85-2.67-10.91-5-14.24-6.81a234.91,234.91,0,0,1-30.16-21,1.11,1.11,0,1,1,1.23-1.85l.17.14a229.84,229.84,0,0,0,29.82,20.79c3.3,1.78,8.31,4.07,14.14,6.68,19.58,8.9,49.18,22.41,70.28,42.28a112.76,112.76,0,0,1,19.54,25.51l.23.44.49.89.22.49a1.06,1.06,0,0,1-.42,1.45h0a.7.7,0,0,1-.49.13Z"/>
                <path class="cls-64" d="M1248.86,876.11a99,99,0,0,0-10-31.15l-.31-.61,2-1,.31.62A98.36,98.36,0,0,1,1251,876l-2.22.22Zm18.51-33.81,2.23-.23,3.09,33.92-2.22.22Zm17.81,32.93,5.94-41.53,2.23.32-6,41.53Z"/>
                <path class="cls-65" d="M1112.74,585.32c19,18,25.19,35.77,21.9,74.47-3.52,41,18.69,65.43,53,85.91,26.55,15.8,15.29,42.62,42.69,65.1,15.44,12.64,27.46,41.71,43.51,28.93,17.43-14,36.54-92,15.31-122.14-9.48-13.35-30.45-24.62-21.45-51s-1-62.31-18.92-74.38-24.93-26.26-30.49-64.72-63.37-92.32-112.84-62.6c-52.59,31.53-5.74,108.23,7.23,120.51Z"/>
                <path class="cls-62" d="M1289.69,717.45c-9.48-13.35-30.44-24.61-21.45-51s-1-62.32-18.92-74.38-24.93-26.26-30.49-64.72c-4.76-33-48.36-77.9-91.65-70.64,5,16.47,12.15,25.43,24,33.51,17.8,12.16,27.91,48,18.91,74.38s12,37.57,21.46,51c21.23,30,2.11,108.16-15.31,122.14l-.23.16c3.83,2.67,7.86,5.23,12.09,7.72,26.55,15.8,15.29,42.62,42.69,65.1,33,27,45.47,27.37,43.51,28.93,17.36-13.95,36.5-92.07,15.29-122.14Z"/>
                <path class="cls-7" d="M1268.49,843.31h-.23a1.13,1.13,0,0,1-.89-1.32h0s.14-4.45-8-43.76c-6.08-29.31-19.43-71-40.82-127.61-35.21-93.19-87.86-179.25-88.4-180.12a1.15,1.15,0,0,1,.35-1.54h0a1.17,1.17,0,0,1,1.56.36c.53.89,53.41,87.11,88.57,180.5,21.44,56.68,34.81,98.55,40.91,128,8.24,39.61,8.12,44.13,8,44.64a1,1,0,0,1-1.06.89Zm23.74-8.45h0a1.08,1.08,0,0,1-1-1.14h0c0-.67,4.23-67,62.76-163.29S1461.2,536,1461.71,535.65a1.09,1.09,0,0,1,1.53.19h0a1.08,1.08,0,0,1-.18,1.53h0c-.51.38-49,38.33-107.14,134.21s-62.32,161.58-62.32,162.24a1.11,1.11,0,0,1-1.13,1.07Z"/>
                <path class="cls-27" d="M1344,874.26H1250.8v28h105.11V886.11a11.85,11.85,0,0,0-11.84-11.86Z"/>
                <path class="cls-66" d="M1215.51,934.32h-3a1.51,1.51,0,0,1,0-3h3a1.52,1.52,0,0,1,1.68,1.33,1.5,1.5,0,0,1-1.33,1.67A1,1,0,0,1,1215.51,934.32Zm105.87,0h-6a1.51,1.51,0,0,1,0-3h6a1.52,1.52,0,0,1,1.68,1.33,1.5,1.5,0,0,1-1.33,1.67A1,1,0,0,1,1321.38,934.32Zm-17.67,0h-6a1.51,1.51,0,0,1,0-3h6a1.52,1.52,0,0,1,1.68,1.33,1.5,1.5,0,0,1-1.33,1.67A1,1,0,0,1,1303.71,934.32Zm-17.66,0h-6a1.51,1.51,0,0,1,0-3h6a1.52,1.52,0,0,1,1.68,1.33,1.5,1.5,0,0,1-1.33,1.67A1,1,0,0,1,1286.05,934.32Zm-17.67,0h-6a1.51,1.51,0,0,1,0-3h6a1.52,1.52,0,0,1,1.68,1.33,1.5,1.5,0,0,1-1.33,1.67,1,1,0,0,1-.35,0Zm-17.66,0h-5.9a1.48,1.48,0,0,1-1.66-1.29v0a1.53,1.53,0,0,1,1.32-1.68h6.25a1.52,1.52,0,0,1,1.68,1.33,1.5,1.5,0,0,1-1.33,1.67,1,1,0,0,1-.35,0Zm-17.67,0h-5.9a1.48,1.48,0,0,1-1.66-1.29v0a1.53,1.53,0,0,1,1.32-1.68h6.25a1.52,1.52,0,0,1,1.68,1.33,1.5,1.5,0,0,1-1.33,1.67,1,1,0,0,1-.35,0Zm103.15,0h-3a1.48,1.48,0,0,1-1.66-1.29v0a1.53,1.53,0,0,1,1.32-1.68h3.35a1.52,1.52,0,0,1,1.68,1.33,1.5,1.5,0,0,1-1.33,1.67,1,1,0,0,1-.35,0Z"/>
                <path class="cls-27" d="M1339.09,972.73H1259l6.66,43h70.84Z"/>
              </g>
            </g>
          </g>
          <path class="cls-67" d="M982.58,86.36c-12.72-18.82-31-27.47-47.31-28-22.9.51-34.6,10.68-45.79,14.25-8.65,3-13.74,2.54-22.39-2.55a35.33,35.33,0,0,1-7.63-7.12s-8.65,5.09-7.63,20.35c.51,6.61-3.56,6.1-8.65,5.6s-15.26-6.11-15.26-6.11-5.6,6.11-6.11,16.79-2.32,30.82,16,46.08c18.32,15.78,53.43,15.5,72.48,14.59,9.88-.47,26.76-6.67,33.88-11.76s5.09-4.33,1.88,6.59c-2.35,8-1.62,19.8,2.45,34.55,5.6,18.82,21.88,22.39,26,18.32,4.07-4.58,8.14-12.21,21.88-14.25,16.79-2.54,27.37,17.38,27.37,17.38s27.06-59.61,4.68-99.29C1008,76.17,982.59,86.34,982.59,86.34Z"/>
        </g>
      </g>
    </g>
  </g>
</svg>
